<?xml version="1.0" encoding="UTF-8"?>
<svg xmlns="http://www.w3.org/2000/svg" viewBox="0 0 457.45 242.31">
  <defs>
    <style>
      .cls-1 {
        fill: #00000000;
      }
    </style>
  </defs>
  <g id="waves">
    <rect class="cls-1" y="0" width="457.43" height="242.31"/>
  </g>
  <g id="DIVE">
    <g>
      <path d="M457.45,13.29V0h-84.81c-1.87,0-3.39,1.52-3.39,3.39V238.92c0,1.87,1.52,3.39,3.39,3.39h84.81v-13.29c0-1.87-1.52-3.39-3.39-3.39h-58.9c-1.96,0-3.56-1.59-3.56-3.56v-93.07c0-2.11,1.71-3.81,3.81-3.81h46.24c1.91,0,3.46-1.55,3.46-3.46v-9.76c0-1.91-1.55-3.46-3.46-3.46h-46.24c-2.11,0-3.81-1.71-3.81-3.81V20.24c0-1.96,1.59-3.56,3.56-3.56h58.9c1.87,0,3.39-1.52,3.39-3.39Z"/>
      <path d="M318.27,6.52l-43.39,193.54L231.49,6.52c-.85-3.81-4.23-6.52-8.14-6.52h-14.21l54.23,240.69c.21,.95,1.06,1.63,2.03,1.63h18.95c.97,0,1.82-.68,2.03-1.63L340.61,0h-14.21c-3.9,0-7.28,2.71-8.14,6.52Z"/>
      <rect x="157.42" y="-.28" width="21.45" height="242.6"/>
      <path d="M61.67,.05C41.11,.04,20.56,.02,0,0V242.41l61.67-.05c30.53-.03,55.27-24.79,55.27-55.32V55.37C116.94,24.84,92.2,.08,61.67,.05Zm-4.87,225.87H26.21c-2.63,0-4.76-2.13-4.76-4.76V21.24c0-2.63,2.13-4.76,4.76-4.76h30.58c19.66,0,35.89,14.67,38.35,33.66V192.27c-2.47,18.99-18.69,33.66-38.35,33.66Z"/>
    </g>
  </g>
</svg>